# xmcd
#
# Track frame offsets:
#	150
#	17191
#	36896
#	56231
#	67788
#	83656
#	102163
#	118446
#	139713
#	157156
#	173886
#	194021
#	212158
#	229696
#	248223
#
# Disc length: 3536 seconds
#
# Revision: 2
# Processed by: cddbd v1.5.2PL0 Copyright (c) Steve Scherf et al.
# Submitted via: EZCDAudioConverter 7.1.5.1
#
DISCID=d90dce0f
DTITLE=群星 - 闭上眼睛去旅行3 DISK-B
DYEAR=2004
DGENRE=
TTITLE0=刘若英/黄韵玲 - 听！是谁在唱歌 
TTITLE1=江美琪 - 只有这么一辈子
TTITLE2=魔术代 - 蓝色天色
TTITLE3=鲍比达 - 遗憾(演奏曲)
TTITLE4=林嘉欣 - 最后我们...
TTITLE5=齐豫 - 莲花处处开
TTITLE6=林慧萍 - 萍水相逢
TTITLE7=张宇/王美莲 - 不醒梦
TTITLE8=萧亚轩 - 幸福的地图
TTITLE9=本多RuRu - 跟我说
TTITLE10=霍建华 - Somebody
TTITLE11=Shine - 天地一秒
TTITLE12=侯湘婷 - 为你流的泪
TTITLE13=黄磊 - 我不知道风是哪一个方向吹
TTITLE14=郭虔哲 - 有泪尽情流(演奏曲)
EXTD=
EXTT0=
EXTT1=
EXTT2=
EXTT3=
EXTT4=
EXTT5=
EXTT6=
EXTT7=
EXTT8=
EXTT9=
EXTT10=
EXTT11=
EXTT12=
EXTT13=
EXTT14=
PLAYORDER=
